<svg width="50" height="50" viewBox="0 0 50 50" fill="none" xmlns="http://www.w3.org/2000/svg">
<g clip-path="url(#clip0_39_337)">
<path d="M10.9375 23.4375H42.1875C42.6019 23.4375 42.9993 23.6021 43.2924 23.8951C43.5854 24.1882 43.75 24.5856 43.75 25C43.75 25.4144 43.5854 25.8118 43.2924 26.1049C42.9993 26.3979 42.6019 26.5625 42.1875 26.5625H10.9375C10.5231 26.5625 10.1257 26.3979 9.83265 26.1049C9.53962 25.8118 9.375 25.4144 9.375 25C9.375 24.5856 9.53962 24.1882 9.83265 23.8951C10.1257 23.6021 10.5231 23.4375 10.9375 23.4375Z" fill="#939393"/>
<path d="M11.5845 25L24.5439 37.9563C24.8373 38.2497 25.0021 38.6476 25.0021 39.0625C25.0021 39.4774 24.8373 39.8754 24.5439 40.1688C24.2505 40.4622 23.8525 40.627 23.4376 40.627C23.0227 40.627 22.6248 40.4622 22.3314 40.1688L8.26886 26.1063C8.12335 25.9611 8.0079 25.7887 7.92913 25.5989C7.85036 25.409 7.80981 25.2055 7.80981 25C7.80981 24.7945 7.85036 24.591 7.92913 24.4012C8.0079 24.2113 8.12335 24.0389 8.26886 23.8938L22.3314 9.83127C22.6248 9.53787 23.0227 9.37305 23.4376 9.37305C23.8525 9.37305 24.2505 9.53787 24.5439 9.83127C24.8373 10.1247 25.0021 10.5226 25.0021 10.9375C25.0021 11.3524 24.8373 11.7504 24.5439 12.0438L11.5845 25Z" fill="#939393"/>
</g>
<defs>
<clipPath id="clip0_39_337">
<rect width="50" height="50" fill="white"/>
</clipPath>
</defs>
</svg>
