<svg width="34" height="34" viewBox="0 0 34 34" fill="none" xmlns="http://www.w3.org/2000/svg">
<path d="M5.77083 14.8229V5.77083H14.8229V14.825L5.77083 14.8229ZM5.77083 27.5646V18.5104H14.8229V27.5646H5.77083ZM18.5104 14.8229V5.77083H27.5646V14.825L18.5104 14.8229ZM18.5104 27.5646V18.5104H27.5646V27.5646H18.5104ZM7.85208 12.7396H12.7396V7.85417H7.85417L7.85208 12.7396ZM20.5938 12.7396H25.4813V7.85417H20.5938V12.7396ZM7.85208 25.4813H12.7396V20.5938H7.85417L7.85208 25.4813ZM20.5938 25.4813H25.4813V20.5938H20.5938V25.4813ZM3.36458 33.3333C2.40625 33.3333 1.60625 33.0125 0.964583 32.3708C0.321527 31.7278 0 30.9271 0 29.9688V3.36458C0 2.40625 0.321527 1.60625 0.964583 0.964583C1.60625 0.321527 2.40625 0 3.36458 0H29.9688C30.9271 0 31.7271 0.321527 32.3688 0.964583C33.0118 1.60625 33.3333 2.40625 33.3333 3.36458V29.9688C33.3333 30.9271 33.0125 31.7271 32.3708 32.3688C31.7278 33.0118 30.9271 33.3333 29.9688 33.3333H3.36458ZM3.36458 31.25H29.9688C30.2882 31.25 30.5819 31.1167 30.85 30.85C31.1167 30.5819 31.25 30.2882 31.25 29.9688V3.36458C31.25 3.04514 31.1167 2.75139 30.85 2.48333C30.5819 2.21667 30.2882 2.08333 29.9688 2.08333H3.36458C3.04514 2.08333 2.75139 2.21667 2.48333 2.48333C2.21667 2.75139 2.08333 3.04514 2.08333 3.36458V29.9688C2.08333 30.2882 2.21667 30.5819 2.48333 30.85C2.75139 31.1167 3.04514 31.25 3.36458 31.25Z" fill="#939393"/>
</svg>
