<svg width="25" height="25" viewBox="0 0 25 25" fill="none" xmlns="http://www.w3.org/2000/svg">
<path d="M5.20817 19.7917H6.35192L17.4957 8.64793L16.3519 7.50418L5.20817 18.6479V19.7917ZM4.1665 20.8333V18.2083L17.8957 4.46668C18.0026 4.37154 18.1207 4.29793 18.2498 4.24585C18.379 4.19377 18.5134 4.16772 18.653 4.16772C18.7932 4.16772 18.9287 4.1896 19.0592 4.23335C19.1912 4.27779 19.3127 4.35766 19.4238 4.47293L20.5342 5.5896C20.6495 5.70071 20.728 5.82224 20.7696 5.95418C20.812 6.08682 20.8332 6.21946 20.8332 6.3521C20.8332 6.49307 20.8092 6.62814 20.7613 6.75731C20.7141 6.88578 20.6384 7.00349 20.5342 7.11043L6.7915 20.8333H4.1665ZM16.9134 8.08543L16.3519 7.50418L17.4957 8.64793L16.9134 8.08543Z" fill="#939393"/>
</svg>
