<svg width="50" height="50" viewBox="0 0 50 50" fill="none" xmlns="http://www.w3.org/2000/svg">
<g clip-path="url(#clip0_312_38)">
<path d="M17.418 1.64469C12.4222 3.37777 8.11384 6.66722 5.12575 11.0299C2.13765 15.3925 0.627311 20.5984 0.816573 25.8828C1.00583 31.1673 2.88472 36.2518 6.17725 40.3895C9.46979 44.5272 14.0024 47.5 19.1094 48.8713C23.2497 49.9396 27.5875 49.9865 31.75 49.008C35.5208 48.161 39.007 46.3492 41.8672 43.7502C44.8441 40.9625 47.0048 37.4161 48.1172 33.4923C49.3263 29.2254 49.5414 24.7382 48.7461 20.3752H25.4961V30.0197H38.9609C38.6918 31.5579 38.1152 33.0261 37.2654 34.3362C36.4157 35.6464 35.3104 36.7717 34.0156 37.6447C32.3714 38.7323 30.518 39.4641 28.5742 39.7931C26.6248 40.1556 24.6252 40.1556 22.6758 39.7931C20.7 39.3846 18.8309 38.5691 17.1875 37.3986C14.5475 35.5298 12.5651 32.8749 11.5234 29.8127C10.4641 26.6931 10.4641 23.3111 11.5234 20.1916C12.2649 18.0049 13.4908 16.014 15.1094 14.3673C16.9617 12.4484 19.3068 11.0767 21.8873 10.4028C24.4679 9.72889 27.1842 9.7788 29.7383 10.547C31.7335 11.1595 33.558 12.2296 35.0664 13.672C36.5846 12.1616 38.1003 10.6473 39.6133 9.12907C40.3945 8.31266 41.2461 7.53532 42.0156 6.69938C39.7131 4.55671 37.0105 2.88945 34.0625 1.79313C28.6942 -0.156129 22.8202 -0.208514 17.418 1.64469Z" fill="white"/>
<path d="M17.418 1.64464C22.8198 -0.209828 28.6937 -0.158822 34.0625 1.78917C37.011 2.89293 39.7124 4.56822 42.0117 6.71886C41.2305 7.55479 40.4062 8.33604 39.6094 9.14854C38.0937 10.6616 36.5794 12.1694 35.0664 13.672C33.558 12.2295 31.7335 11.1594 29.7383 10.547C27.1851 9.77605 24.4688 9.72326 21.8876 10.3944C19.3063 11.0656 16.9598 12.4347 15.1055 14.3517C13.4868 15.9983 12.261 17.9892 11.5195 20.1759L3.42188 13.9064C6.32034 8.15855 11.3389 3.76192 17.418 1.64464Z" fill="#E33629"/>
<path d="M1.27343 20.1172C1.70867 17.9601 2.43126 15.8712 3.42187 13.9062L11.5195 20.1914C10.4602 23.311 10.4602 26.6929 11.5195 29.8125C8.82161 31.8958 6.12239 33.9896 3.42187 36.0938C0.941991 31.1575 0.185671 25.5332 1.27343 20.1172Z" fill="#F8BD00"/>
<path d="M25.4961 20.3711H48.7461C49.5414 24.7341 49.3262 29.2214 48.1172 33.4883C47.0048 37.412 44.8441 40.9584 41.8672 43.7461C39.2539 41.707 36.6289 39.6836 34.0156 37.6445C35.3112 36.7706 36.4171 35.6441 37.2668 34.3325C38.1166 33.021 38.6928 31.5513 38.9609 30.0117H25.4961C25.4922 26.8008 25.4961 23.5859 25.4961 20.3711Z" fill="#587DBD"/>
<path d="M3.41797 36.0938C6.11849 34.0104 8.81771 31.9167 11.5156 29.8125C12.5594 32.8758 14.5446 35.5308 17.1875 37.3984C18.836 38.5635 20.7091 39.3724 22.6875 39.7734C24.6369 40.1359 26.6365 40.1359 28.5859 39.7734C30.5297 39.4444 32.3831 38.7126 34.0273 37.625C36.6406 39.6641 39.2656 41.6875 41.8789 43.7266C39.0191 46.3271 35.5329 48.1402 31.7617 48.9883C27.5993 49.9668 23.2614 49.9199 19.1211 48.8516C15.8465 47.9772 12.7878 46.4359 10.1367 44.3242C7.33071 42.0964 5.03889 39.289 3.41797 36.0938Z" fill="#319F43"/>
</g>
<defs>
<clipPath id="clip0_312_38">
<rect width="50" height="50" fill="white"/>
</clipPath>
</defs>
</svg>
