<svg width="50" height="50" viewBox="0 0 50 50" fill="none" xmlns="http://www.w3.org/2000/svg">
<g clip-path="url(#clip0_118_50)">
<path fill-rule="evenodd" clip-rule="evenodd" d="M40.625 25C40.6243 25.8285 40.2946 26.6228 39.7083 27.2083L29.2917 37.625C28.6993 38.177 27.9157 38.4775 27.1062 38.4632C26.2966 38.4489 25.5241 38.1209 24.9516 37.5484C24.379 36.9758 24.0511 36.2034 24.0368 35.3938C24.0225 34.5842 24.323 33.8007 24.875 33.2083L33.0792 25L24.8708 16.7916C24.3019 16.202 23.9872 15.4125 23.9948 14.5931C24.0023 13.7737 24.3313 12.9901 24.911 12.411C25.4906 11.8318 26.2746 11.5035 27.0939 11.4968C27.9133 11.4901 28.7026 11.8054 29.2917 12.375L39.7083 22.7916C40.2946 23.3771 40.6243 24.1714 40.625 25ZM28.125 25C28.1243 25.8285 27.7946 26.6228 27.2083 27.2083L16.7917 37.625C16.1993 38.177 15.4157 38.4775 14.6062 38.4632C13.7966 38.4489 13.0241 38.1209 12.4516 37.5484C11.879 36.9758 11.5511 36.2034 11.5368 35.3938C11.5225 34.5842 11.823 33.8007 12.375 33.2083L20.5792 25L12.3708 16.7916C11.8019 16.202 11.4872 15.4125 11.4947 14.5931C11.5023 13.7737 11.8313 12.9901 12.411 12.411C12.9906 11.8318 13.7746 11.5035 14.5939 11.4968C15.4133 11.4901 16.2026 11.8054 16.7917 12.375L27.2083 22.7916C27.7946 23.3771 28.1243 24.1714 28.125 25Z" fill="#939393"/>
</g>
<defs>
<clipPath id="clip0_118_50">
<rect width="50" height="50" fill="white" transform="matrix(0 1 -1 0 50 0)"/>
</clipPath>
</defs>
</svg>
