<svg width="50" height="50" viewBox="0 0 50 50" fill="none" xmlns="http://www.w3.org/2000/svg">
<path d="M42.1875 9.375H7.8125C7.3981 9.375 7.00067 9.53962 6.70765 9.83265C6.41462 10.1257 6.25 10.5231 6.25 10.9375V40.625C6.25 41.4538 6.57924 42.2487 7.16529 42.8347C7.75134 43.4208 8.5462 43.75 9.375 43.75H17.1875C18.0163 43.75 18.8112 43.4208 19.3972 42.8347C19.9833 42.2487 20.3125 41.4538 20.3125 40.625V31.25H29.6875V34.375C29.6875 35.2038 30.0167 35.9987 30.6028 36.5847C31.1888 37.1708 31.9837 37.5 32.8125 37.5H40.625C41.4538 37.5 42.2487 37.1708 42.8347 36.5847C43.4208 35.9987 43.75 35.2038 43.75 34.375V10.9375C43.75 10.5231 43.5854 10.1257 43.2924 9.83265C42.9993 9.53962 42.6019 9.375 42.1875 9.375ZM17.1875 40.625H9.375V25H17.1875V40.625ZM17.1875 21.875H9.375V12.5H17.1875V21.875ZM29.6875 28.125H20.3125V12.5H29.6875V28.125ZM40.625 34.375H32.8125V25H40.625V34.375ZM40.625 21.875H32.8125V12.5H40.625V21.875Z" fill="#939393"/>
</svg>
