<svg width="50" height="50" viewBox="0 0 50 50" fill="none" xmlns="http://www.w3.org/2000/svg">
<g clip-path="url(#clip0_122_54)">
<mask id="mask0_122_54" style="mask-type:luminance" maskUnits="userSpaceOnUse" x="0" y="0" width="50" height="50">
<path d="M0 0L0 50L50 50L50 0L0 0Z" fill="white"/>
</mask>
<g mask="url(#mask0_122_54)">
<path fill-rule="evenodd" clip-rule="evenodd" d="M9.375 25C9.3757 24.1715 9.7054 23.3772 10.2917 22.7917L20.7083 12.375C21.3007 11.823 22.0843 11.5225 22.8938 11.5368C23.7034 11.5511 24.4759 11.8791 25.0484 12.4516C25.621 13.0242 25.9489 13.7966 25.9632 14.6062C25.9775 15.4158 25.677 16.1993 25.125 16.7917L16.9208 25L25.1292 33.2084C25.6981 33.798 26.0128 34.5875 26.0052 35.4069C25.9977 36.2263 25.6687 37.0099 25.089 37.589C24.5094 38.1682 23.7254 38.4965 22.9061 38.5032C22.0867 38.5099 21.2974 38.1946 20.7083 37.625L10.2917 27.2084C9.7054 26.6229 9.3757 25.8286 9.375 25ZM21.875 25C21.8757 24.1715 22.2054 23.3772 22.7917 22.7917L33.2083 12.375C33.8007 11.823 34.5843 11.5225 35.3938 11.5368C36.2034 11.5511 36.9759 11.8791 37.5484 12.4516C38.121 13.0242 38.4489 13.7966 38.4632 14.6062C38.4775 15.4158 38.177 16.1993 37.625 16.7917L29.4208 25L37.6292 33.2084C38.1981 33.798 38.5128 34.5875 38.5053 35.4069C38.4977 36.2263 38.1687 37.0099 37.589 37.589C37.0094 38.1682 36.2254 38.4965 35.4061 38.5032C34.5867 38.5099 33.7974 38.1946 33.2083 37.625L22.7917 27.2084C22.2054 26.6229 21.8757 25.8286 21.875 25Z" fill="#939393"/>
</g>
</g>
<defs>
<clipPath id="clip0_122_54">
<rect width="50" height="50" fill="white" transform="matrix(-1 0 0 -1 50 50)"/>
</clipPath>
</defs>
</svg>
