<svg width="50" height="50" viewBox="0 0 50 50" fill="none" xmlns="http://www.w3.org/2000/svg">
<path d="M5.72916 16.2239H44.2708M35.7708 44.2708H14.2292C11.9748 44.2708 9.81282 43.3753 8.21876 41.7812C6.6247 40.1871 5.72916 38.0251 5.72916 35.7708V14.2291C5.72916 11.9748 6.6247 9.81278 8.21876 8.21872C9.81282 6.62466 11.9748 5.72913 14.2292 5.72913H35.7708C38.0252 5.72913 40.1872 6.62466 41.7812 8.21872C43.3753 9.81278 44.2708 11.9748 44.2708 14.2291V35.7708C44.2708 38.0251 43.3753 40.1871 41.7812 41.7812C40.1872 43.3753 38.0252 44.2708 35.7708 44.2708Z" stroke="#939393" stroke-width="3" stroke-linecap="round" stroke-linejoin="round"/>
<path d="M13.6594 27.2625L19.349 38.3645L36.0792 21.4187" stroke="#939393" stroke-width="1.04167" stroke-linecap="round" stroke-linejoin="round"/>
</svg>
