<svg width="50" height="50" viewBox="0 0 50 50" fill="none" xmlns="http://www.w3.org/2000/svg">
<path d="M25 4.6875C27.3854 6.64583 27.9375 10.0385 25 11.7396C22.0625 10.0385 22.6146 6.64583 25 4.6875ZM30.6792 12.6917C30.7427 15.0833 27.4521 16.3344 25 15.7615C22.5479 16.3344 19.2573 15.0844 19.3208 12.6917C21.2708 11.2906 23.7156 12.449 25 15.0073C26.2844 12.449 28.7292 11.2906 30.6792 12.6917ZM22.3698 18.1906C20.5667 17.4906 19.2823 16.6 18.0865 16.6104C2.24271 16.75 3.83646 45.3125 25 45.3125C46.1635 45.3125 47.7583 16.75 31.9146 16.6104C30.7104 16.6 29.4312 17.4854 27.6302 18.1906C25.826 18.8979 24.2896 18.9354 22.3698 18.1906Z" stroke="#939393" stroke-width="3" stroke-linecap="round" stroke-linejoin="round"/>
</svg>
