<svg width="75" height="75" viewBox="0 0 75 75" fill="none" xmlns="http://www.w3.org/2000/svg">
<path fill-rule="evenodd" clip-rule="evenodd" d="M18.5875 3.90625H18.9125C21.7188 3.90625 24.0625 3.90625 25.9187 4.15625C27.8812 4.41875 29.6531 5 31.075 6.42188C32.5 7.84688 33.0813 9.61875 33.3438 11.5781C33.5938 13.4375 33.5938 15.7812 33.5938 18.5875V56.4125C33.5938 59.2219 33.5938 61.5625 33.3438 63.4188C33.0813 65.3813 32.5 67.1531 31.0781 68.575C29.6531 70 27.8813 70.5813 25.9219 70.8438C24.0625 71.0938 21.7188 71.0938 18.9125 71.0938H18.5875C15.7812 71.0938 13.4375 71.0938 11.5813 70.8438C9.61875 70.5813 7.84687 70 6.425 68.575C5 67.1531 4.41875 65.3813 4.15625 63.4188C3.90625 61.5625 3.90625 59.2219 3.90625 56.4125V18.5875C3.90625 15.7812 3.90625 13.4375 4.15625 11.5813C4.41875 9.61875 5 7.84687 6.42188 6.425C7.84688 5 9.61875 4.41875 11.5781 4.15625C13.4375 3.90625 15.7812 3.90625 18.5875 3.90625ZM12.2031 8.80312C10.7625 8.99687 10.1437 9.33125 9.7375 9.74063C9.33125 10.1469 8.99687 10.7625 8.8 12.2031C8.60313 13.7125 8.59375 15.7375 8.59375 18.75V56.25C8.59375 59.2625 8.6 61.2875 8.80312 62.7969C8.99687 64.2375 9.33125 64.8563 9.74063 65.2625C10.1469 65.6688 10.7625 66.0031 12.2031 66.2C13.7125 66.4 15.7375 66.4062 18.75 66.4062C21.7625 66.4062 23.7875 66.4 25.2969 66.1969C26.7375 66.0031 27.3562 65.6687 27.7625 65.2594C28.1687 64.8531 28.5031 64.2375 28.7 62.7969C28.9 61.2875 28.9062 59.2625 28.9062 56.25V18.75C28.9062 15.7375 28.9 13.7125 28.6969 12.2031C28.5031 10.7625 28.1688 10.1437 27.7594 9.7375C27.3531 9.33125 26.7375 8.99687 25.2969 8.8C23.7875 8.60313 21.7625 8.59375 18.75 8.59375C15.7375 8.59375 13.7125 8.6 12.2031 8.80312ZM56.0875 3.90625H56.4125C59.2219 3.90625 61.5625 3.90625 63.4188 4.15625C65.3813 4.41875 67.1531 5 68.575 6.42188C70 7.84688 70.5813 9.61875 70.8438 11.5781C71.0938 13.4375 71.0938 15.7812 71.0938 18.5875V56.4125C71.0938 59.2219 71.0938 61.5625 70.8438 63.4188C70.5813 65.3813 70 67.1531 68.575 68.575C67.1531 70 65.3813 70.5813 63.4188 70.8438C61.5625 71.0938 59.2219 71.0938 56.4125 71.0938H56.0875C53.2781 71.0938 50.9375 71.0938 49.0812 70.8438C47.1188 70.5813 45.3469 70 43.925 68.575C42.5 67.1531 41.9188 65.3813 41.6562 63.4188C41.4062 61.5625 41.4062 59.2219 41.4062 56.4125V18.5875C41.4062 15.7812 41.4062 13.4375 41.6562 11.5813C41.9188 9.61875 42.5 7.84687 43.925 6.425C45.3469 5 47.1188 4.41875 49.0812 4.15625C50.9375 3.90625 53.2781 3.90625 56.0875 3.90625ZM49.7031 8.80312C48.2625 8.99687 47.6437 9.33125 47.2375 9.74063C46.8312 10.1469 46.4969 10.7625 46.3 12.2031C46.1 13.7125 46.0938 15.7375 46.0938 18.75V56.25C46.0938 59.2625 46.1 61.2875 46.3 62.7969C46.4969 64.2375 46.8312 64.8563 47.2375 65.2625C47.6437 65.6688 48.2625 66.0031 49.7062 66.2C51.2125 66.4 53.2375 66.4062 56.25 66.4062C59.2625 66.4062 61.2875 66.4 62.7969 66.1969C64.2375 66.0031 64.8563 65.6687 65.2625 65.2594C65.6688 64.8531 66.0031 64.2375 66.2 62.7969C66.4 61.2875 66.4062 59.2625 66.4062 56.25V18.75C66.4062 15.7375 66.4 13.7125 66.1969 12.2031C66.0031 10.7625 65.6687 10.1437 65.2594 9.7375C64.8531 9.33125 64.2375 8.99687 62.7969 8.8C61.2875 8.6 59.2625 8.59375 56.25 8.59375C53.2375 8.59375 51.2125 8.6 49.7031 8.80312Z" fill="#939393"/>
</svg>
