<svg width="75" height="75" viewBox="0 0 75 75" fill="none" xmlns="http://www.w3.org/2000/svg">
<g clip-path="url(#clip0_39_292)">
<mask id="mask0_39_292" style="mask-type:luminance" maskUnits="userSpaceOnUse" x="0" y="0" width="75" height="75">
<path d="M0 0H75V75H0V0Z" fill="white"/>
</mask>
<g mask="url(#mask0_39_292)">
<path fill-rule="evenodd" clip-rule="evenodd" d="M65.6484 33.4407L25.7812 10.3922C25.0687 9.98084 24.2603 9.76425 23.4375 9.76424C22.6147 9.76424 21.8064 9.98082 21.0938 10.3922C20.3812 10.8036 19.7895 11.3953 19.3781 12.1079C18.9666 12.8205 18.75 13.6288 18.75 14.4516V60.5485C18.75 61.3713 18.9666 62.1796 19.3781 62.8922C19.7895 63.6048 20.3812 64.1965 21.0938 64.6079C21.8064 65.0193 22.6147 65.2359 23.4375 65.2359C24.2603 65.2359 25.0687 65.0193 25.7812 64.6079L65.6484 41.5594C66.361 41.148 66.9527 40.5563 67.364 39.8437C67.7754 39.1311 67.992 38.3228 67.992 37.5001C67.992 36.6773 67.7754 35.869 67.364 35.1564C66.9527 34.4438 66.361 33.8521 65.6484 33.4407ZM69.1687 47.6438C76.9734 43.1344 76.9734 31.8657 69.1687 27.3516L29.3016 4.30318C21.4922 -0.210878 11.7188 5.42818 11.7188 14.4516V60.5485C11.7188 69.5719 21.4922 75.211 29.3016 70.6923L69.1687 47.6438Z" fill="#939393"/>
</g>
</g>
<defs>
<clipPath id="clip0_39_292">
<rect width="75" height="75" fill="white"/>
</clipPath>
</defs>
</svg>
