<svg width="34" height="34" viewBox="0 0 34 34" fill="none" xmlns="http://www.w3.org/2000/svg">
<g clip-path="url(#clip0_33_259)">
<path fill-rule="evenodd" clip-rule="evenodd" d="M14.875 2.83337C12.9548 2.83354 11.0626 3.29289 9.35602 4.17311C7.6495 5.05332 6.17821 6.32888 5.06491 7.89336C3.95161 9.45783 3.22859 11.2659 2.95616 13.1666C2.68374 15.0673 2.8698 17.0057 3.49885 18.8199C4.12789 20.6341 5.18166 22.2715 6.57225 23.5957C7.96283 24.9198 9.64991 25.8921 11.4927 26.4316C13.3355 26.9711 15.2806 27.0621 17.1658 26.697C19.0509 26.3319 20.8214 25.5212 22.3295 24.3327L27.5032 29.5064C27.7703 29.7644 28.1282 29.9072 28.4996 29.904C28.8711 29.9008 29.2264 29.7518 29.4891 29.4891C29.7517 29.2265 29.9007 28.8711 29.9039 28.4997C29.9072 28.1282 29.7644 27.7704 29.5063 27.5032L24.3327 22.3295C25.7323 20.5539 26.6038 18.4201 26.8474 16.1723C27.091 13.9245 26.6968 11.6536 25.71 9.61934C24.7232 7.58511 23.1836 5.8698 21.2674 4.6697C19.3513 3.46961 17.1359 2.83322 14.875 2.83337ZM5.66666 14.875C5.66666 12.4328 6.63682 10.0907 8.36372 8.36377C10.0906 6.63687 12.4328 5.66671 14.875 5.66671C17.3172 5.66671 19.6594 6.63687 21.3863 8.36377C23.1132 10.0907 24.0833 12.4328 24.0833 14.875C24.0833 17.3172 23.1132 19.6594 21.3863 21.3863C19.6594 23.1132 17.3172 24.0834 14.875 24.0834C12.4328 24.0834 10.0906 23.1132 8.36372 21.3863C6.63682 19.6594 5.66666 17.3172 5.66666 14.875Z" fill="#939393"/>
</g>
<defs>
<clipPath id="clip0_33_259">
<rect width="34" height="34" fill="white"/>
</clipPath>
</defs>
</svg>
