<svg width="50" height="50" viewBox="0 0 50 50" fill="none" xmlns="http://www.w3.org/2000/svg">
<g clip-path="url(#clip0_36_134)">
<path d="M25.1388 15.2778C19.7222 15.2778 15.4166 19.5834 15.4166 25.0001C15.4166 30.4167 19.7222 34.7223 25.1388 34.7223C30.5555 34.7223 34.8611 30.4167 34.8611 25.0001C34.8611 19.5834 30.5555 15.2778 25.1388 15.2778ZM25.1388 31.9445C21.25 31.9445 18.1944 28.8889 18.1944 25.0001C18.1944 21.1112 21.25 18.0556 25.1388 18.0556C29.0277 18.0556 32.0833 21.1112 32.0833 25.0001C32.0833 28.8889 29.0277 31.9445 25.1388 31.9445Z" fill="#939393"/>
<path d="M45.5556 20.4167L41.6667 19.1667L40.8334 17.0834L42.7778 13.4723C43.1945 12.6389 43.0556 11.5278 42.3612 10.8334L39.0278 7.50005C38.3334 6.80561 37.2223 6.66672 36.3889 7.08339L32.7778 9.02783L30.6945 8.1945L29.4445 4.30561C29.1667 3.47228 28.3334 2.77783 27.3612 2.77783H22.6389C21.6667 2.77783 20.8334 3.47228 20.6945 4.4445L19.4445 8.33339C18.6112 8.47228 17.9167 8.75005 17.2223 9.16672L13.6112 7.22228C12.7778 6.80561 11.6667 6.9445 10.9723 7.63894L7.63894 10.9723C6.9445 11.6667 6.80561 12.7778 7.22228 13.6112L9.02783 17.0834C8.75005 17.7778 8.47228 18.6112 8.1945 19.3056L4.30561 20.5556C3.47228 20.8334 2.77783 21.6667 2.77783 22.6389V27.3612C2.77783 28.3334 3.47228 29.1667 4.4445 29.4445L8.33339 30.6945L9.16672 32.7778L7.22228 36.3889C6.80561 37.2223 6.9445 38.3334 7.63894 39.0278L10.9723 42.3612C11.6667 43.0556 12.7778 43.1945 13.6112 42.7778L17.2223 40.8334L19.3056 41.6667L20.5556 45.6945C20.8334 46.5278 21.6667 47.2223 22.6389 47.2223H27.3612C28.3334 47.2223 29.1667 46.5278 29.4445 45.6945L30.6945 41.6667L32.7778 40.8334L36.3889 42.7778C37.2223 43.1945 38.3334 43.0556 39.0278 42.3612L42.3612 39.0278C43.0556 38.3334 43.1945 37.2223 42.7778 36.3889L40.8334 32.7778L41.6667 30.6945L45.6945 29.4445C46.5278 29.1667 47.2223 28.3334 47.2223 27.3612V22.6389C47.2223 21.6667 46.5278 20.6945 45.5556 20.4167ZM44.4445 26.9445L39.4445 28.4723L39.3056 29.1667L38.0556 32.0834L37.6389 32.7778L40.1389 37.3612L37.3612 40.1389L32.7778 37.6389L32.0834 38.0556C31.1112 38.6112 30.1389 39.0278 29.1667 39.3056L28.4723 39.4445L26.9445 44.4445H23.0556L21.5278 39.4445L20.8334 39.3056L17.9167 38.0556L17.2223 37.6389L12.6389 40.1389L9.86117 37.3612L12.3612 32.7778L11.9445 32.0834C11.3889 31.1112 10.9723 30.1389 10.6945 29.1667L10.5556 28.4723L5.55561 26.9445V23.0556L10.2778 21.6667L10.5556 20.9723C10.8334 19.8612 11.2501 18.8889 11.8056 17.9167L12.2223 17.2223L9.86117 12.6389L12.6389 9.86117L17.0834 12.3612L17.7778 11.9445C18.7501 11.3889 19.7223 10.9723 20.8334 10.6945L21.5278 10.4167L23.0556 5.55561H26.9445L28.4723 10.4167L29.1667 10.6945C30.1389 10.9723 31.1112 11.3889 32.0834 11.9445L32.7778 12.3612L37.3612 9.86117L40.1389 12.6389L37.6389 17.2223L38.0556 17.9167C38.6112 18.8889 39.0278 19.8612 39.3056 20.8334L39.4445 21.5278L44.4445 23.0556V26.9445Z" fill="#939393"/>
</g>
<defs>
<clipPath id="clip0_36_134">
<rect width="50" height="50" fill="white"/>
</clipPath>
</defs>
</svg>
