<svg width="50" height="50" viewBox="0 0 50 50" fill="none" xmlns="http://www.w3.org/2000/svg">
<path d="M25 41.6666C21.1323 41.6666 17.4229 40.1302 14.688 37.3953C11.9531 34.6604 10.4167 30.9511 10.4167 27.0833C10.4167 23.2156 11.9531 19.5062 14.688 16.7713C17.4229 14.0364 21.1323 12.5 25 12.5C28.8677 12.5 32.5771 14.0364 35.312 16.7713C38.0469 19.5062 39.5833 23.2156 39.5833 27.0833C39.5833 30.9511 38.0469 34.6604 35.312 37.3953C32.5771 40.1302 28.8677 41.6666 25 41.6666ZM39.6458 15.3958L42.6042 12.4375C41.6667 11.375 40.7292 10.4166 39.6667 9.49998L36.7083 12.5C33.4792 9.87498 29.4167 8.33331 25 8.33331C20.0272 8.33331 15.2581 10.3088 11.7417 13.8251C8.22544 17.3414 6.25 22.1105 6.25 27.0833C6.25 32.0561 8.22544 36.8253 11.7417 40.3416C15.2581 43.8579 20.0272 45.8333 25 45.8333C35.4167 45.8333 43.75 37.4375 43.75 27.0833C43.75 22.6666 42.2083 18.6041 39.6458 15.3958ZM22.9167 29.1666H27.0833V16.6666H22.9167M31.25 2.08331H18.75V6.24998H31.25V2.08331Z" fill="#939393"/>
</svg>
