<svg width="138" height="138" viewBox="0 0 138 138" fill="none" xmlns="http://www.w3.org/2000/svg">
<path d="M45.54 14.1746C48.6208 14.1746 51.6715 14.7814 54.5178 15.9603C57.3641 17.1393 59.9503 18.8674 62.1287 21.0458C64.3072 23.2243 66.0352 25.8105 67.2142 28.6568C68.3932 31.5031 69 34.5538 69 37.6346V101.41C68.9909 105.025 68.2519 108.601 66.8273 111.924C65.4027 115.246 63.3218 118.247 60.7094 120.746C58.097 123.245 55.0069 125.19 51.6244 126.466C48.2419 127.742 44.6366 128.321 41.0246 128.17C37.4127 128.019 33.8686 127.139 30.6047 125.585C27.3408 124.031 24.4244 121.833 22.0303 119.125C19.6362 116.416 17.8138 113.252 16.6722 109.821C15.5307 106.391 15.0935 102.766 15.387 99.1628C9.79801 93.15 6.26915 81.42 6.26915 71.6121C6.26915 58.2656 12.8242 45.2936 22.2082 40.1777C21.8508 36.9009 22.188 33.5856 23.1978 30.4479C24.2076 27.3101 25.8672 24.4204 28.0685 21.967C30.2699 19.5136 32.9635 17.5517 35.9739 16.209C38.9843 14.8664 42.2438 14.1731 45.54 14.1746Z" stroke="#939393" stroke-width="5" stroke-linecap="round" stroke-linejoin="round"/>
<path d="M34.6084 56.1266C31.1584 55.338 23.3614 50.2221 22.1884 40.2467M48.99 82.455C63.066 80.8778 68.6353 66.033 69 59.9906M22.5729 85.0868C19.0637 87.8468 16.2643 94.1258 15.3673 99.153M92.46 14.1746C86.238 14.1746 80.2709 16.6462 75.8713 21.0458C71.4717 25.4454 69 31.4126 69 37.6346V101.41C69.0091 105.025 69.7481 108.601 71.1727 111.924C72.5974 115.246 74.6782 118.247 77.2906 120.746C79.903 123.245 82.9931 125.19 86.3756 126.466C89.7581 127.742 93.3634 128.321 96.9754 128.17C100.587 128.019 104.131 127.139 107.395 125.585C110.659 124.031 113.576 121.833 115.97 119.125C118.364 116.416 120.186 113.252 121.328 109.821C122.469 106.391 122.906 102.766 122.613 99.1628C128.202 93.15 131.721 81.42 131.721 71.6121C131.721 58.2656 125.176 45.2936 115.782 40.1777C116.139 36.9017 115.802 33.5873 114.793 30.4502C113.784 27.3131 112.125 24.4239 109.925 21.9707C107.725 19.5174 105.032 17.5553 102.023 16.212C99.0138 14.8688 95.7554 14.1745 92.46 14.1746Z" stroke="#939393" stroke-width="5" stroke-linecap="round" stroke-linejoin="round"/>
<path d="M103.392 56.1266C106.842 55.338 114.639 50.2221 115.812 40.2467M89.01 82.455C74.934 80.8778 69.3647 66.033 69 59.9906M115.427 85.0868C118.936 87.8468 121.736 94.1258 122.633 99.153" stroke="#939393" stroke-width="5" stroke-linecap="round" stroke-linejoin="round"/>
</svg>
